<?xml version="1.0" encoding="UTF-8"?>
<!DOCTYPE svg  PUBLIC '-//W3C//DTD SVG 1.1//EN'  'http://www.w3.org/Graphics/SVG/1.1/DTD/svg11.dtd'>
<svg enable-background="new 0 0 595.28 841.89" version="1.1" viewBox="0 0 595.28 841.89" xml:space="preserve" xmlns="http://www.w3.org/2000/svg">
	<circle cx="297.26" cy="420.94" r="150" fill="#0095DA"/>
	<path d="m297.82 270.95v299.99c82.587-0.3 149.44-67.335 149.44-149.99 0-82.657-66.858-149.69-149.44-149.99z" fill="#3C9CD7"/>
		<path d="m297.81 339.88c-27.556 0-49.976 19.756-49.976 44.038s22.42 44.038 49.976 44.038c27.56 0 49.98-19.756 49.98-44.038s-22.42-44.038-49.98-44.038zm0 70.027c-17.63 0-31.927-11.635-31.927-25.989 0-14.352 14.296-25.989 31.927-25.989 17.635 0 31.931 11.638 31.931 25.989 0 14.354-14.296 25.989-31.931 25.989z" fill="#F1F2F2"/>
			<path d="m370.4 482.58c0 2.842-3.223 5.146-7.197 5.146h-130.78c-3.975 0-7.198-2.305-7.198-5.146v-93.514c0-2.842 3.223-5.147 7.198-5.147h130.78c3.975 0 7.197 2.305 7.197 5.147v93.514z" fill="#FF8F9A"/>
			<path d="m297.82 383.92h-65.39c-3.975 0-7.198 2.305-7.198 5.147v93.514c0 2.842 3.223 5.146 7.198 5.146h65.39v-103.81z" fill="#FF6D7A"/>
				<path d="m320.81 429.86h-16.996v-15.783c0-3.682-2.983-6.67-6.667-6.67-3.681 0-6.667 2.988-6.667 6.67v15.783h-16.996c-3.682 0-6.667 2.986-6.667 6.667 0 3.685 2.985 6.667 6.667 6.667h16.996v15.787c0 3.681 2.986 6.666 6.667 6.666 3.684 0 6.667-2.985 6.667-6.666v-15.787h16.996c3.682 0 6.667-2.982 6.667-6.667 0-3.68-2.986-6.667-6.667-6.667z" fill="#F1F2F2"/>
				<path d="m291.15 414.07v15.783h-16.994c-3.684 0-6.667 2.986-6.667 6.667 0 3.685 2.983 6.667 6.667 6.667h16.994v15.787c0 3.681 2.985 6.666 6.669 6.666v-58.24c-3.684 0-6.669 2.989-6.669 6.67z" fill="#fff"/>
</svg>
